<?xml version="1.0" encoding="UTF-8" standalone="no"?>
<!-- Created with Inkscape (http://www.inkscape.org/) -->

<svg
   version="1.1"
   id="svg9"
   width="2546.3169"
   height="2414.3467"
   viewBox="0 0 2546.3169 2414.3467"
   sodipodi:docname="marikina.svg"
   inkscape:version="1.1 (c68e22c387, 2021-05-23)"
   xmlns:inkscape="http://www.inkscape.org/namespaces/inkscape"
   xmlns:sodipodi="http://sodipodi.sourceforge.net/DTD/sodipodi-0.dtd"
   xmlns="http://www.w3.org/2000/svg"
   xmlns:svg="http://www.w3.org/2000/svg">
  <defs
     id="defs13" />
  <sodipodi:namedview
     id="namedview11"
     pagecolor="#ffffff"
     bordercolor="#666666"
     borderopacity="1.0"
     inkscape:pageshadow="2"
     inkscape:pageopacity="0.0"
     inkscape:pagecheckerboard="0"
     showgrid="false"
     inkscape:zoom="0.1584375"
     inkscape:cx="1205.5227"
     inkscape:cy="994.08284"
     inkscape:window-width="1366"
     inkscape:window-height="715"
     inkscape:window-x="-8"
     inkscape:window-y="-8"
     inkscape:window-maximized="1"
     inkscape:current-layer="g15" />
  <g
     inkscape:groupmode="layer"
     inkscape:label="Image"
     id="g15"
     transform="translate(-406.13313,-211.98809)">
    <path
       style="fill:#b3b3b3;stroke-width:4.463"
       d="m 582.87324,2619.7779 c -4.66095,-3.5279 -18.71941,-9.7668 -31.24101,-13.8642 -26.26851,-8.5956 -61.79178,-25.7205 -79.99312,-38.5629 l -12.59654,-8.8877 10.79634,-11.7391 c 20.34572,-22.1225 25.55424,-33.4496 25.55424,-55.5732 0,-18.3666 -3.92276,-28.4883 -25.12784,-64.8362 -13.82031,-23.6895 -30.19368,-49.8669 -36.38527,-58.172 -10.01186,-13.4294 -10.68931,-16.6713 -6.12279,-29.2998 4.31182,-11.9241 2.9906,-24.0091 -8.24474,-75.4133 -7.35866,-33.6675 -13.37938,-63.7689 -13.37938,-66.892 0,-3.1231 14.56054,-10.3413 32.35676,-16.0404 41.24432,-13.2082 74.75527,-30.0464 74.75527,-37.5622 0,-3.2174 5.01848,-18.2004 11.15217,-33.2955 11.73989,-28.892 14.95682,-51.4408 9.1975,-64.469 -5.58194,-12.627 5.91468,-9.3041 20.00802,5.7829 6.98384,7.4762 29.23183,38.1035 49.43997,68.0607 46.44901,68.8575 71.29049,101.9619 98.44287,131.1873 23.89721,25.7217 23.39743,24.3461 16.72751,46.0424 -2.63616,8.575 -6.22694,56.7622 -7.97951,107.0825 -2.97671,85.4679 -3.948,93.1393 -14.75278,116.5187 -9.74814,21.0929 -15.49827,27.2767 -36.58003,39.3384 -15.67731,8.9697 -32.782,24.1992 -45.82609,40.8022 -11.44679,14.57 -21.01816,26.4269 -21.26973,26.3489 -0.25153,-0.078 -4.27088,-3.0285 -8.93182,-6.5565 z"
       id="Industrial_Valley"
       inkscape:label="#Industrial Valley">
      <title
         id="title22">Industrial Valley</title>
    </path>
    <path
       style="fill:#b3b3b3;stroke-width:4.463"
       d="m 703.84176,2238.0364 c -14.0231,-15.496 -44.89958,-56.4436 -68.61439,-90.9947 -62.85705,-91.5789 -75.71502,-108.2098 -90.34029,-116.8492 -7.23464,-4.2736 -14.27374,-11.9405 -15.64246,-17.0375 -4.86994,-18.1355 -2.66201,-46.0671 4.08405,-51.6659 3.68197,-3.0558 6.6945,-11.3351 6.6945,-18.3984 0,-8.4403 -2.29481,-12.8426 -6.6945,-12.8426 -4.03047,0 -6.60942,-3.996 -6.48069,-10.0418 0.15563,-7.3088 10.1762,-17.3294 36.81977,-36.8197 30.07833,-22.0029 39.05126,-31.5011 50.31902,-53.2644 7.5422,-14.5676 19.87926,-30.6344 27.41571,-35.704 30.57182,-20.5654 63.75917,-49.6713 63.8759,-56.0204 0.0683,-3.7143 6.03023,-14.5577 13.24876,-24.0965 22.0773,-29.1735 30.01923,-66.7723 19.75446,-93.5218 -1.60984,-4.1952 4.14249,-14.2168 14.96796,-26.0769 9.67045,-10.5947 19.93604,-23.7619 22.81242,-29.2604 2.87637,-5.4986 6.67607,-9.6985 8.44376,-9.3333 1.76771,0.3653 6.64114,-0.8402 10.82986,-2.6788 4.18872,-1.8386 16.88607,-1.3658 28.21633,1.0507 28.63894,6.1081 42.96584,1.3009 51.89467,-17.4125 7.13274,-14.949 8.87736,-15.786 49.5883,-23.7907 l 42.19546,-8.2965 -2.1259,-18.861 c -2.10764,-18.6989 4.29996,-29.9326 12.34542,-21.6436 2.05579,2.118 7.98814,34.9804 13.18299,73.0275 10.70813,78.4265 13.06483,94.3342 31.33953,211.54 7.233,46.3895 12.3354,85.5523 11.3385,87.0285 -0.9968,1.4762 -53.08481,28.7926 -115.7512,60.7031 l -113.93888,58.019 2.00099,37.9355 c 1.10055,20.8645 3.24667,55.3532 4.76917,76.6413 l 2.76818,38.7058 -12.71971,6.6159 c -28.92576,15.0453 -49.34951,52.0802 -62.91157,114.0793 l -8.18957,37.4386 z"
       id="Barangka"
       inkscape:label="#Barangka">
      <title
         id="title24">Barangka</title>
    </path>
    <path
       style="fill:#b3b3b3;stroke-width:4.463"
       d="m 922.00062,2200.0084 c -38.37523,-51.0304 -56.02291,-68.5738 -82.64191,-82.1538 l -17.28937,-8.8204 -2.98266,-48.1103 c -1.64047,-26.4607 -3.63609,-59.6097 -4.43473,-73.6645 l -1.45208,-25.5542 95.31144,-48.8443 c 52.4213,-26.8645 99.07199,-50.038 103.66809,-51.4967 6.0471,-1.9193 9.7806,0.4727 13.5086,8.6548 4.8789,10.7079 4.0905,11.8229 -14.8749,21.037 -11.01473,5.3513 -20.02679,12.128 -20.02679,15.0592 0,2.9312 11.04589,59.0695 24.54649,124.7518 13.5006,65.6822 24.5465,124.6849 24.5465,131.117 0,8.7151 -9.4048,21.0507 -36.913,48.416 -20.3021,20.1966 -38.87935,36.6865 -41.28273,36.644 -2.40337,-0.042 -20.2607,-21.2084 -39.68295,-47.0356 z"
       id="Tanong"
       inkscape:label="#Tanong" />
    <path
       style="fill:#b3b3b3;stroke-width:4.463"
       d="m 1267.4924,2496.1459 c -86.7166,-10.6842 -89.26,-11.2332 -89.26,-19.2652 0,-5.49 -9.6376,-6.6148 -56.9033,-6.6412 -31.2968,-0.017 -70.263,-1.2936 -86.5916,-2.836 -28.2376,-2.6673 -29.8132,-3.4291 -32.2452,-15.5888 -1.4728,-7.364 -5.44253,-12.7844 -9.36292,-12.7844 -3.74334,0 -6.80607,-2.0084 -6.80607,-4.463 0,-2.6209 -15.46135,-4.463 -37.45802,-4.463 -30.4381,0 -37.97885,1.3572 -40.23714,7.2422 -2.17008,5.6551 -10.9426,-0.595 -40.02981,-28.5199 -42.80004,-41.0897 -57.09935,-46.9923 -79.77406,-32.9299 -7.97144,4.9438 -21.41465,16.1504 -29.87379,24.9036 -11.0757,11.4608 -19.22176,15.9149 -29.10607,15.9149 H 716.1186 l 3.34303,-50.2087 c 1.87889,-28.2189 7.11689,-61.9367 11.95976,-76.9868 4.73919,-14.7279 11.85839,-41.9275 15.82044,-60.4436 3.96204,-18.5161 12.93858,-45.792 19.94785,-60.6131 34.02701,-71.9501 71.81261,-61.0321 151.29728,43.7165 75.75598,99.8348 106.66344,133.3235 139.34254,150.9797 27.2487,14.7222 31.2875,15.6077 70.2307,15.3981 l 41.3194,-0.2225 18.9312,-18.3838 18.9311,-18.3838 37.6067,6.5972 c 20.6837,3.6284 41.2627,8.5538 45.7312,10.9452 9.6355,5.1568 20.4437,25.5816 47.015,88.8467 10.8249,25.7738 20.7829,49.3719 22.1287,52.4402 3.0628,6.9829 -3.5172,6.6797 -92.2311,-4.2506 z"
       id="Calumpang"
       inkscape:label="#Calumpang">
      <title
         id="title26">Calumpang</title>
    </path>
    <path
       style="fill:#b3b3b3;stroke-width:4.463"
       d="m 1093.4353,2367.9028 c -34.6332,-10.6008 -57.8856,-27.8145 -90.7048,-67.1485 l -33.79221,-40.5002 37.66731,-38.0081 c 20.7171,-20.9045 39.0367,-43.4408 40.7103,-50.0807 1.9344,-7.6746 -5.6247,-55.9709 -20.7496,-132.5737 -13.0859,-66.2755 -24.6709,-122.9454 -25.7445,-125.9331 -1.09564,-3.0491 7.0433,-9.8024 18.5528,-15.3941 21.7561,-10.5699 23.2576,-13.7505 15.7784,-33.4224 -3.8599,-10.1523 -3.3517,-13.4363 2.7725,-17.9143 8.5478,-6.2504 9.4133,2.9682 -13.5472,-144.2927 -16.1264,-103.4295 -33.73228,-226.5147 -33.64555,-235.2211 0.0295,-2.957 7.58487,-6.647 16.78985,-8.1999 9.2049,-1.5529 20.2493,-3.7871 24.543,-4.9649 5.4225,-1.4874 9.2048,1.5357 12.3844,9.8986 2.5177,6.622 8.2514,17.3007 12.7417,23.7304 4.4902,6.4297 9.6133,17.7154 11.3847,25.0794 1.7713,7.3639 9.3272,23.3388 16.7908,35.4996 17.8391,29.0663 25.9201,52.802 25.9201,76.1333 0,11.6335 13.7327,61.2506 35.3635,127.7707 45.7678,140.7475 65.225,241.1109 76.6841,395.5484 4.3323,58.3879 4.2605,78.9353 -0.3664,104.8806 -11.6797,65.4944 -37.2616,107.5063 -70.1046,115.1294 -20.2624,4.703 -44.0309,4.6964 -59.4286,-0.018 z"
       id="Jesus_De_La_Pena"
       inkscape:label="#Jesus De La Pe単a">
      <title
         id="title28">Jesus De La Pe単a</title>
    </path>
    <path
       style="fill:#b3b3b3;stroke-width:4.463"
       d="m 1387.9934,2546.1771 c 0,-11.1655 -78.7585,-190.4434 -85.4918,-194.6048 -1.632,-1.0086 -18.7123,-4.9204 -37.956,-8.6929 -62.1441,-12.1823 -56.1364,-8.7134 -48.1259,-27.788 12.4566,-29.6616 20.6945,-85.8433 19.1079,-130.3144 l -1.5077,-42.2608 33.4725,-12.1021 c 26.8163,-9.6956 60.2572,-15.2699 168.1664,-28.0316 74.0817,-8.7611 139.8551,-15.9294 146.1633,-15.9294 11.0473,0 11.4694,0.9889 11.4694,26.8737 0,31.9633 1.4868,32.9923 55.7875,38.6094 l 35.704,3.6935 -0.4106,15.6242 c -0.9035,34.3948 -6.7407,49.9599 -26.7633,71.3657 -18.3625,19.631 -19.5134,22.231 -15.0445,33.9852 2.7498,7.2325 3.5854,21.8437 1.9354,33.841 -3.4329,24.9611 0.7687,48.2504 8.7049,48.2504 18.8616,0 29.692,41.4363 17.7514,67.9156 -7.6251,16.9095 -7.5739,17.8314 2.0938,37.7304 5.4504,11.2186 9.1571,21.15 8.2372,22.07 -2.3793,2.3792 -88.9762,21.5382 -190.6448,42.1788 -47.8657,9.7177 -90.5432,18.7816 -94.8388,20.1421 -4.2957,1.3606 -7.8103,0.2103 -7.8103,-2.556 z"
       id="San_Roque"
       inkscape:label="#San Roque">
      <title
         id="title30">San Roque</title>
    </path>
    <path
       style="fill:#b3b3b3;stroke-width:4.463"
       d="m 1628.9955,2140.3975 -24.5465,-2.6198 -1.3146,-32.5217 -1.3146,-32.5217 -14.3059,2.3871 c -7.8683,1.313 -76.5648,9.6105 -152.659,18.4389 -104.5321,12.1278 -145.8681,18.707 -169.0954,26.914 -16.9083,5.9742 -31.5742,10.0304 -32.5909,9.0137 -1.0167,-1.0166 -3.8271,-21.6592 -6.2453,-45.8724 -2.4183,-24.2132 -7.3338,-62.5796 -10.9234,-85.2587 -3.5896,-22.6791 -6.5265,-42.0095 -6.5265,-42.9564 0,-4.9075 27.9462,-6.2543 42.993,-2.0719 13.5957,3.779 34.9805,2.5882 100.7829,-5.612 70.395,-8.7726 87.9348,-9.6229 111.575,-5.4092 15.4273,2.7498 69.2208,12.2586 119.5412,21.1307 50.3203,8.8721 102.0155,18.2264 114.878,20.7873 l 23.3865,4.6562 -6.6502,12.8601 c -8.0429,15.5532 -8.3611,24.074 -1.3202,35.3483 4.1314,6.6154 4.1314,11.1655 0,20.233 -2.9316,6.434 -5.3301,21.2832 -5.3301,32.9983 0,17.1578 -2.1698,23.1868 -11.1575,31.0015 -6.1366,5.3357 -11.1575,12.7271 -11.1575,16.4253 0,7.1982 -10.784,7.6907 -58.019,2.6494 z"
       id="Santa_Elena"
       inkscape:label="#Santa Elena">
      <title
         id="title32">Santa Elena</title>
    </path>
    <path
       style="fill:#b3b3b3;stroke-width:4.463"
       d="m 1646.8475,1965.7831 c -38.0471,-6.9881 -96.5758,-17.8423 -130.0638,-24.1204 -73.5344,-13.7856 -78.4133,-13.8478 -167.5325,-2.1377 -54.5249,7.1646 -75.6826,8.2722 -92.9163,4.8643 -12.2733,-2.4269 -28.2882,-4.0911 -35.5888,-3.6982 l -13.2738,0.7145 -12.0928,-55.7875 c -6.651,-30.6832 -22.2675,-85.8375 -34.7034,-122.5653 -12.4359,-36.7277 -22.6107,-69.1198 -22.6107,-71.9823 0,-2.8625 6.2766,-7.8045 13.9481,-10.9821 7.6715,-3.1776 25.7523,-14.4672 40.1796,-25.088 14.4272,-10.6207 29.0717,-19.3104 32.5432,-19.3104 3.4715,0 13.3047,-8.4185 21.8516,-18.7079 l 15.5398,-18.7079 46.1966,5.3443 c 25.4082,2.9393 67.3572,5.3328 93.22,5.3189 l 47.0235,-0.025 24.2227,-49.093 c 13.3224,-27.0012 26.3039,-49.0734 28.8476,-49.0494 2.5437,0.024 15.6708,5.2524 29.1714,11.6188 44.0147,20.7557 153.6713,67.0795 166.2468,70.2299 9.8288,2.4624 12.2732,5.6294 12.2732,15.9015 0,12.3395 2.0769,13.5872 54.6718,32.8455 30.0695,11.0103 70.7386,25.6004 90.3758,32.4223 19.6372,6.8219 37.2697,13.7528 39.1832,15.4018 1.9136,1.6491 -9.2429,37.5333 -24.7921,79.7427 -25.2285,68.4842 -29.9263,77.8744 -43.6463,87.2424 -19.4299,13.2667 -41.5466,40.7677 -50.9321,63.3315 -7.5294,18.1015 -45.4251,60.1552 -53.535,59.409 -2.5469,-0.2343 -35.7602,-6.1437 -73.8073,-13.1319 z"
       id="Santo_Nino"
       inkscape:label="#Santo Ni単o">
      <title
         id="title34">Santo Ni単o</title>
    </path>
    <path
       style="fill:#b3b3b3;stroke-width:4.463"
       d="m 1125.3828,1658.603 c -2.8432,-9.4898 -5.2186,-24.0503 -5.2786,-32.3568 -0.1866,-25.8377 -8.6696,-53.8465 -24.1093,-79.6034 -8.163,-13.6176 -17.3531,-32.7927 -20.4224,-42.6113 -3.0694,-9.8186 -8.3142,-20.995 -11.6552,-24.8363 -3.3409,-3.8414 -8.3044,-13.3811 -11.0298,-21.1993 -5.5541,-15.9326 -5.6388,-15.952 -42.3138,-9.702 -14.56503,2.4821 -31.867,5.4169 -38.4488,6.5216 -11.20275,1.8805 -12.56473,0.2123 -21.32908,-26.1246 -9.54458,-28.6815 -8.91869,-40.3319 2.40005,-44.6753 7.93725,-3.0458 8.51828,-31.8284 0.77068,-38.1774 -24.76365,-20.2934 -34.50496,-26.8667 -48.44937,-32.693 -14.8764,-6.2158 -16.41363,-8.7087 -21.58778,-35.0084 -3.06396,-15.5738 -9.6803,-34.0872 -14.70298,-41.1409 -6.35202,-8.9206 -7.59222,-13.7767 -4.07382,-15.9511 2.78207,-1.7195 5.13283,-11.0515 5.22392,-20.7378 0.0911,-9.6864 0.31175,-26.0932 0.49035,-36.4597 l 0.32475,-18.848 11.82008,6.2165 c 6.50104,3.419 21.85541,13.4069 34.12082,22.1952 33.05904,23.6874 35.58499,22.4807 49.4162,-23.6063 8.40873,-28.0188 13.8591,-39.4292 18.6535,-39.0513 4.54391,0.3582 10.14216,-9.3474 17.00718,-29.485 5.6285,-16.5103 11.5305,-32.1172 13.1155,-34.6818 1.6077,-2.6012 34.7416,26.0721 74.9363,64.8481 82.8812,79.9557 69.4965,75.9713 140.9851,41.9679 25.4756,-12.1175 49.6897,-22.0317 53.8089,-22.0317 4.1193,0 26.7822,11.548 50.362,25.6622 29.405,17.601 47.6871,32.0528 58.1994,46.0061 13.9744,18.5485 15.5382,23.7304 17.7212,58.7211 1.537,24.6356 5.6021,45.3171 11.3531,57.7587 4.9274,10.6598 12.5007,27.9285 16.8296,38.3748 4.3289,10.4464 10.573,21.2362 13.8758,23.9773 8.078,6.7041 7.6325,34.8623 -0.6972,44.0665 -3.6862,4.0732 -11.8407,22.1132 -18.121,40.0887 -9.1185,26.0993 -10.2407,33.4299 -5.5709,36.3914 8.5224,5.4048 11.6062,4.7253 16.255,-3.5816 3.7519,-6.7044 49.8433,-16.9832 49.8433,-11.1156 0,1.1948 -11.3321,25.859 -25.1824,54.8093 l -25.1823,52.637 -19.9017,2.9844 c -19.0448,2.856 -69.7038,0.9052 -137.7244,-5.3033 l -31.7021,-2.8936 -14.7906,18.4049 c -8.1348,10.1226 -18.317,18.4048 -22.6271,18.4048 -4.3102,0 -13.5137,4.7603 -20.4524,10.5785 -17.6598,14.8081 -55.7456,38.5145 -61.876,38.5145 -2.8128,0 -7.4405,-7.7643 -10.2837,-17.254 z"
       id="Malanday"
       inkscape:label="#Malanday">
      <title
         id="title36">Malanday</title>
    </path>
    <path
       style="fill:#b3b3b3;stroke-width:4.463"
       d="m 1809.7471,1647.462 -89.2601,-32.0358 1.0667,-13.9272 c 0.9713,-12.6825 -0.3359,-14.1902 -14.6285,-16.8715 -12.9528,-2.43 -74.6308,-28.1395 -186.2045,-77.6165 -15.1239,-6.7067 -16.5104,-8.7132 -14.023,-20.2948 l 2.7603,-12.8522 -21.681,3.0357 c -11.9246,1.6697 -28.0919,4.1403 -35.9273,5.4902 l -14.2463,2.4545 9.0394,-23.879 c 4.9717,-13.1334 11.8846,-27.0496 15.362,-30.9249 10.5188,-11.7221 7.944,-44.8098 -4.8348,-62.1306 -6.1367,-8.3177 -11.1576,-18.4967 -11.1576,-22.6199 0,-4.1233 -5.0771,-16.5808 -11.2825,-27.6835 -7.7527,-13.8711 -12.0316,-29.7553 -13.6766,-50.7709 -1.8797,-24.0141 -1.2961,-28.8533 2.7168,-22.5265 2.811,4.4317 9.7014,9.8029 15.312,11.9361 11.3878,4.3296 73.3463,-2.1282 92.9335,-9.6863 17.1896,-6.633 33.591,-27.5361 37.0811,-47.2587 1.616,-9.1327 5.4851,-22.6299 8.5978,-29.9938 11.7367,-27.766 22.0286,-94.0229 21.8374,-140.5846 -0.1994,-48.57065 -5.1941,-67.23084 -37.2551,-139.18572 l -9.3196,-20.91621 17.9356,-47.74978 c 9.8647,-26.26238 17.9357,-48.35411 17.9357,-49.09273 0,-0.73862 -22.1517,-9.83354 -49.2261,-20.21093 l -49.2261,-18.86799 11.0538,-11.54061 c 14.3402,-14.97166 24.9164,-40.64238 24.9164,-60.47742 0,-11.829 -4.0188,-20.19935 -16.1399,-33.61586 l -16.1398,-17.86486 h 11.817 c 20.4239,0 257.1001,76.06413 304.4192,97.83568 l 45.186,20.79009 -10.5825,20.82288 -10.5825,20.82287 -23.3595,-10.8226 c -12.8477,-5.95243 -24.7507,-9.37783 -26.4512,-7.61199 -6.7508,7.01039 -93.7394,195.39072 -98.5757,213.47336 -4.4574,16.66544 -4.0152,21.63028 3.2225,36.18502 4.6137,9.2781 7.9385,18.6406 7.3882,20.8056 -0.5502,2.1649 -2.7264,17.2275 -4.8359,33.4725 -2.1095,16.2449 -5.2507,33.0565 -6.9805,37.3591 -2.4191,6.0171 0.3145,9.2904 11.842,14.1801 14.041,5.956 15.6915,5.7029 26.1446,-4.0094 6.1367,-5.7017 25.216,-17.4645 42.3985,-26.1396 17.1826,-8.6752 42.2193,-22.9434 55.6371,-31.7072 13.4178,-8.7639 29.365,-15.9343 35.4382,-15.9343 6.0733,0 27.8887,5.4863 48.4788,12.1917 l 37.4366,12.1917 -2.981,13.4706 c -5.4577,24.6629 -4.8575,26.2225 11.9554,31.0677 9.004,2.5948 17.7441,6.094 19.4224,7.776 1.6784,1.682 -0.3869,13.4103 -4.5895,26.063 -4.2476,12.7883 -5.936,24.6672 -3.802,26.748 2.1115,2.0586 14.885,8.0418 28.3856,13.2958 13.5006,5.2541 33.3302,14.6655 44.0659,20.9142 22.5156,13.1051 20.346,16.2922 -16.3066,23.9533 -23.0181,4.8114 -23.9282,4.6069 -39.2065,-8.8076 -10.9506,-9.6148 -20.2229,-13.7333 -30.9184,-13.7333 -13.3026,0 -16.7435,2.5022 -26.6228,19.3598 -6.2401,10.648 -11.3456,24.4067 -11.3456,30.575 0,20.1638 9.221,39.2292 20.3207,42.015 8.4141,2.1118 11.0983,6.6072 13.4972,22.6043 3.8661,25.7811 20.5605,46.1139 37.8622,46.1139 11.7281,0 13.4389,2.0748 19.3197,23.4308 3.5487,12.8869 7.6711,35.5408 9.1611,50.342 2.6614,26.4379 2.428,27.1835 -13.2715,42.3985 -26.5595,25.7397 -40.4165,52.123 -69.0301,131.4305 -15.0368,41.6769 -27.7169,76.136 -28.1782,76.5757 -0.4612,0.4396 -41.0056,-13.6167 -90.0986,-31.2364 z"
       id="Concepcion_Uno"
       inkscape:label="#Concepcion Uno">
      <title
         id="title38">Concepcion Uno</title>
    </path>
    <path
       style="fill:#b3b3b3;stroke-width:4.463"
       d="m 2722.3963,1934.6467 c -2.4093,-4.502 -14.9352,-13.0508 -27.8353,-18.9974 -12.9001,-5.9467 -32.1802,-18.149 -42.8447,-27.1162 -17.7608,-14.9341 -21.7203,-16.304 -47.1242,-16.304 -17.4766,0 -30.9384,-2.4235 -36.3975,-6.5526 -4.7648,-3.6039 -13.3943,-6.6164 -19.1765,-6.6945 -14.5049,-0.1959 -36.3988,-19.6674 -49.7741,-44.2671 l -11.1942,-20.5883 -24.5098,1.568 c -13.4804,0.8624 -25.3844,2.4064 -26.4533,3.4312 -1.069,1.0248 -2.3416,10.0715 -2.8282,20.1039 -1.4091,29.0567 -18.3482,41.0504 -46.9416,33.2368 -9.6897,-2.6478 -13.9174,-0.4546 -26.293,13.6405 -13.1993,15.0331 -17.7776,17.1605 -43.6286,20.2726 -38.0956,4.5863 -45.7276,0.4274 -45.7276,-24.9186 0,-10.659 -2.5104,-21.3672 -5.5787,-23.7961 -3.0684,-2.4288 -17.7765,-5.4647 -32.6847,-6.7463 -26.3248,-2.2631 -27.8587,-3.1194 -53.2268,-29.7153 -29.5684,-30.9993 -39.0644,-35.0014 -61.152,-25.7726 -8.5563,3.575 -27.7547,7.9157 -42.663,9.646 -26.8617,3.1177 -27.2707,3.3805 -45.344,29.1459 -24.1641,34.4482 -39.8375,46.9558 -67.0087,53.4741 -20.0579,4.8118 -25.1384,4.3963 -46.0068,-3.7625 -12.9024,-5.0444 -32.9986,-10.3855 -44.6582,-11.8693 -11.6596,-1.4838 -21.1992,-4.1986 -21.1992,-6.0331 0,-1.8344 6.2314,-20.2885 13.8476,-41.0093 7.6162,-20.7207 32.3777,-89.8911 55.0256,-153.712 41.5552,-117.1008 52.3286,-139.9035 81.1958,-171.8561 l 15.8613,-17.5565 11.8736,14.3723 c 18.8003,22.7566 27.8126,29.6024 58.6565,44.5563 48.9984,23.7557 103.1841,21.3301 162.9782,-7.2956 48.1376,-23.0454 69.2898,-44.5862 94.4773,-96.2135 20.0157,-41.0266 22.3602,-44.015 32.7182,-41.7041 18.4491,4.116 41.3971,17.6242 59.3477,34.9347 22.9996,22.1795 28.4323,31.8299 31.9462,56.7483 3.7865,26.8507 12.1957,32.6714 57.3399,39.6898 29.8478,4.6404 37.5684,4.3552 58.2039,-2.1496 33.7857,-10.6499 39.3762,-9.656 52.0164,9.2477 6.1366,9.1775 18.686,24.95 27.8875,35.0501 14.1367,15.5172 18.8021,26.2435 30.0969,69.196 7.3517,27.9577 13.3795,61.5916 13.3952,74.7421 0.031,26.9149 33.2894,183.7824 42.9107,202.3995 5.4576,10.5605 5.3154,14.0359 -1.1271,27.546 -8.6395,18.1172 -22.0003,23.5879 -28.4007,11.6288 z"
       id="Concepcion_Dos"
       inkscape:label="#Concepcion Dos">
      <title
         id="title42">Concepcion Dos</title>
    </path>
    <path
       style="fill:#b3b3b3;stroke-width:4.463"
       d="m 2655.7919,1520.7677 c -26.8341,-36.6081 -31.9403,-38.3162 -74.4661,-24.9112 -20.4338,6.4412 -27.7111,6.7061 -53.9482,1.9637 -38.0702,-6.8811 -44.8747,-12.0014 -48.5762,-36.553 -3.8327,-25.4223 -15.8013,-44.9895 -39.0187,-63.7909 -24.1998,-19.5969 -42.4072,-28.6283 -64.9975,-32.2406 -14.0042,-2.2394 -18.3213,-1.4808 -18.324,3.2196 -0.01,9.6533 -25.2856,60.6357 -40.7321,82.1445 -17.1379,23.8642 -55.1283,50.9131 -90.9229,64.7367 -20.4972,7.9158 -36.1993,10.418 -66.945,10.6679 -35.6636,0.2901 -42.812,-1.0662 -63.758,-12.0953 -27.8641,-14.6719 -56.9975,-39.9702 -65.9369,-57.257 -3.5114,-6.7904 -8.461,-26.9878 -10.999,-44.883 -2.538,-17.8953 -6.8821,-40.1052 -9.6536,-49.3555 -4.4917,-14.9922 -6.6234,-16.8187 -19.6291,-16.8187 -19.1059,0 -31.9731,-16.2131 -35.8076,-45.1189 -2.2155,-16.7016 -4.7278,-21.8261 -10.6999,-21.8261 -19.7279,0 -26.5878,-28.4636 -13.4169,-55.6709 12.2263,-25.2562 22.6806,-26.2005 48.2032,-4.3541 l 18.5125,15.846 20.3823,-6.92 c 11.2103,-3.806 24.2826,-6.92 29.0495,-6.92 18.1628,0 24.3175,-19.7626 27.0346,-86.8077 2.7141,-66.9711 4.8332,-74.4007 32.1403,-112.6848 19.0712,-26.73754 34.1177,-32.28488 97.7655,-36.0443 l 54.7488,-3.2338 9.0512,-60.25051 9.0511,-60.25052 19.2488,-1.3861 c 22.3609,-1.6102 64.8633,11.45152 95.3882,29.31443 11.5026,6.73127 46.5622,34.33054 77.9102,61.33169 31.348,27.00116 65.3828,55.53231 75.633,63.40251 45.2032,34.7079 64.3134,78.9462 64.3134,148.8796 0,50.2452 -1.824,48.5063 51.3245,48.9316 35.6956,0.2857 71.2932,7.7856 85.8239,18.0818 5.474,3.8788 12.9804,14.2984 16.6807,23.1545 6.5888,15.7692 6.1683,17.6998 -20.3375,93.3652 -14.8859,42.4946 -30.8456,94.3339 -35.466,115.1985 -4.6203,20.8645 -12.1149,49.9856 -16.6546,64.7135 l -8.254,26.778 z"
       id="Marikina_Heights"
       inkscape:label="#Marikina Heights">
      <title
         id="title44">Marikina Heights</title>
    </path>
    <path
       style="fill:#b3b3b3;stroke-width:4.463"
       d="m 2044.9792,1186.8573 c -5.2009,-3.6428 -24.1055,-12.8226 -42.0101,-20.3994 -17.9047,-7.5769 -33.0084,-14.172 -33.5638,-14.6559 -0.5555,-0.4838 3.0638,-11.6008 8.0428,-24.7044 4.979,-13.1036 7.4418,-25.2935 5.4729,-27.0886 -1.969,-1.7951 -11.0814,-5.6608 -20.25,-8.5903 -16.2881,-5.2044 -16.646,-5.793 -15.6205,-25.6858 l 1.0496,-20.3593 -37.7337,-12.7889 c -47.2208,-16.0043 -65.256,-16.2554 -87.4165,-1.2169 -9.3787,6.3646 -34.2613,20.7415 -55.2945,31.9488 -21.0333,11.2073 -42.659,24.3291 -48.057,29.1597 -12.8095,11.4628 -26.0174,7.2018 -21.4054,-6.9054 1.7958,-5.4932 3.073,-15.9657 2.8382,-23.2722 -0.2349,-7.3065 1.5762,-20.7242 4.0247,-29.817 3.715,-13.7967 2.8959,-19.5172 -4.95,-34.5699 -8.3378,-15.99647 -8.7755,-19.94515 -3.8677,-34.89647 6.3357,-19.30177 87.9574,-193.47253 93.2986,-199.08794 1.9403,-2.03987 11.9516,0.58866 22.2474,5.84117 10.2957,5.25252 21.5786,8.92985 25.073,8.17186 5.9124,-1.28249 22.3999,-34.31907 92.5661,-185.47699 31.6797,-68.24719 26.0351,-65.14321 90.9415,-50.00902 25.0602,5.84327 52.5071,16.41336 76.3063,29.3863 38.7423,21.11846 50.0156,22.27654 50.0575,5.14229 0.05,-20.42534 9.6013,-43.73867 26.8701,-65.5854 25.2944,-31.99974 27.9665,-32.86287 90.2318,-29.14657 l 53.8563,3.21442 19.2567,20.58436 c 10.5911,11.32139 21.4803,26.6094 24.1982,33.97336 2.7179,7.36395 8.9365,22.25407 13.8191,33.08915 l 8.8776,19.70016 -9.3582,12.65765 c -8.8029,11.90661 -9.1196,15.5043 -5.3368,60.63387 3.7227,44.4111 3.3152,49.46863 -5.4835,68.05973 -12.0909,25.54727 -23.3169,27.331 -57.4329,9.12571 -14.0055,-7.4738 -28.2916,-13.58871 -31.7468,-13.58871 -10.6761,0 -18.7665,63.26711 -12.2703,95.95453 3.494,17.581 2.3991,35.68523 -5.1613,85.33928 l -9.5962,63.02427 -51.6158,2.12577 c -62.5577,2.57645 -78.5959,8.99005 -102.8661,41.13562 -22.7893,30.1843 -31.0639,63.132 -31.0639,123.6909 0,26.3406 -1.681,48.9309 -3.7356,50.2008 -2.0547,1.2698 -7.991,-0.6718 -13.1918,-4.3146 z"
       id="Parang"
       inkscape:label="#Parang">
      <title
         id="title46">Parang</title>
    </path>
    <path
       style="fill:#b3b3b3;stroke-width:4.463"
       d="m 1442.6004,1246.9242 c -4.8044,-1.7773 -9.8922,-6.2462 -11.3062,-9.9309 -1.414,-3.6848 -12.2372,-19.1524 -24.0516,-34.3725 -17.1193,-22.0542 -30.4938,-33.0029 -65.8718,-53.9244 -24.4311,-14.4479 -49.7673,-26.2516 -56.3478,-26.2516 -6.5761,0 -33.7964,10.0111 -60.4894,22.2469 -26.693,12.2358 -51.8234,22.2776 -55.8452,22.3151 -4.0219,0.036 -43.657,-36.4339 -88.078,-81.0474 l -80.76549,-81.1154 10.70899,-14.04015 c 9.2684,-12.15154 11.39,-22.10231 15.7717,-73.97389 2.7846,-32.96353 10.0356,-82.02555 16.1134,-109.02671 10.8744,-48.31004 11.387,-49.37284 32.1392,-66.63775 11.5988,-9.6496 62.5886,-58.61847 113.3108,-108.81971 l 92.2221,-91.27498 17.1214,27.76189 c 44.9664,72.91178 84.4842,127.45528 93.2524,128.70953 10.6956,1.52995 21.3594,-19.44973 38.9695,-76.66704 5.9562,-19.35232 12.1184,-33.10036 13.6939,-30.55122 1.5754,2.54914 13.5978,10.69236 26.7164,18.09604 54.4488,30.72902 60.9188,63.72324 21.3361,108.80548 -7.6711,8.73681 -13.9473,16.99873 -13.9473,18.35984 0,1.3611 22.2318,10.99602 49.404,21.41094 38.2449,14.65896 48.8956,20.51948 47.1527,25.94559 -1.2383,3.85516 -8.5547,24.72402 -16.2585,46.37524 -11.3393,31.86824 -13.1462,41.64351 -9.4872,51.32452 2.4859,6.57726 12.4123,31.2414 22.0587,54.80919 27.9672,68.32849 28.9744,112.18439 4.7557,207.07759 -18.0957,70.9018 -25.942,86.7088 -47.3009,95.2903 -17.1699,6.8985 -74.3741,13.028 -84.9776,9.1055 z"
       id="Tumana"
       inkscape:label="#Tumana">
      <title
         id="title40">Tumana</title>
    </path>
    <path
       style="fill:#b3b3b3;stroke-width:4.463"
       d="m 2753.1182,1222.6275 c -10.0572,-10.0572 -54.5654,-19.4958 -93.1694,-19.758 -18.4099,-0.1249 -35.7231,-1.7028 -38.4739,-3.5062 -2.9397,-1.9273 -5.9407,-23.5157 -7.2801,-52.3719 -3.4908,-75.2052 -17.1963,-101.6915 -78.5074,-151.71826 -16.3417,-13.33397 -54.8165,-45.39332 -85.4996,-71.24294 -48.7686,-41.08612 -60.4494,-48.68712 -92.8406,-60.4139 -22.2292,-8.04776 -45.8064,-13.41454 -58.9325,-13.41454 -21.698,0 -21.908,-0.13883 -25.3088,-16.73625 -4.3682,-21.31887 -4.3949,-56.66071 -0.059,-77.78872 l 3.3703,-16.42244 24.8564,13.07519 c 34.5295,18.16356 68.5799,16.20693 68.5799,-3.94079 0,-4.27676 3.0619,-12.14742 6.8043,-17.49036 5.797,-8.27635 6.1317,-16.81263 2.2611,-57.66331 -4.3248,-45.6432 -4.0832,-48.6202 5.0232,-61.91011 13.5092,-19.71548 38.1078,-26.09836 85.3977,-22.15913 31.1398,2.59393 40.0637,1.80376 52.6832,-4.66486 8.3562,-4.28327 16.6686,-10.01798 18.472,-12.74378 6.0221,-9.1023 3.5097,-23.57094 -5.5104,-31.73403 -5.451,-4.93306 -8.926,-13.7459 -8.926,-22.63671 0,-26.92103 27.6626,-77.78082 42.3049,-77.78082 2.7748,0 17.8795,9.03757 33.5661,20.0835 15.6866,11.04593 31.361,20.08351 34.8321,20.08351 21.2533,0 104.9633,24.89471 129.1832,38.41813 15.3416,8.56611 27.8938,16.56063 27.8938,17.76561 0,1.20498 -3.904,9.8434 -8.6757,19.19649 -5.9377,11.63899 -9.6586,31.27878 -11.7906,62.23397 l -3.1151,45.22835 18.5708,20.14688 c 21.5314,23.35886 55.4966,74.56786 67.5872,101.90052 4.6026,10.40506 13.7101,23.88502 20.2388,29.95547 6.5288,6.07045 16.5641,21.58103 22.3009,34.46794 5.7368,12.88692 12.442,23.43076 14.9006,23.43076 8.1925,0 35.0181,46.59414 37.9104,65.8477 1.7849,11.88212 0.027,31.08628 -4.6991,51.32452 -4.1531,17.78611 -7.6928,46.26211 -7.8659,63.28011 l -0.3147,30.9419 -33.2898,22.6141 c -32.4137,22.0191 -34.2578,22.6554 -70.0728,24.179 l -36.7831,1.5647 -16.2089,48.644 c -8.9149,26.7543 -17.6208,48.6441 -19.3465,48.6441 -1.7257,0 -6.2559,-3.1182 -10.067,-6.9294 z"
       id="Fortune"
       inkscape:label="#Fortune">
      <title
         id="title48">Fortune</title>
    </path>
    <path
       style="fill:#b3b3b3;stroke-width:4.463"
       d="m 1847.6826,711.65744 c -6.1367,-1.8189 -26.5355,-10.41759 -45.3309,-19.10817 -47.871,-22.13456 -276.3697,-92.27558 -300.6066,-92.27558 -25.7799,0 -41.8799,-6.55531 -57.244,-23.30759 -20.5914,-22.452 -20.3371,-37.64147 1.3054,-77.94598 25.2797,-47.07793 39.7073,-60.97978 89.466,-86.20543 47.156,-23.90624 57.6899,-33.74908 109.6993,-102.50342 48.8948,-64.63683 62.2971,-77.50051 92.4249,-88.71035 l 25.8357,-9.61283 18.7943,9.4611 c 10.3369,5.20361 37.8737,22.9487 61.1929,39.43353 23.3192,16.48484 50.8911,35.82648 61.271,42.98141 10.3798,7.15493 18.9153,15.21674 18.9677,17.91513 0.052,2.69839 -6.9339,18.152 -15.5252,34.34135 -23.5674,44.4102 -21.2198,76.38555 6.4496,87.84657 30.7896,12.75348 71.6529,-11.21828 71.6529,-42.03395 0,-8.93156 -4.0167,-24.11259 -8.926,-33.73562 -11.5773,-22.69347 -11.2683,-27.48833 2.6106,-40.5048 l 11.5367,-10.81971 8.6001,11.1575 c 33.6308,43.63133 34.8731,44.63002 55.5168,44.63002 32.8029,0 77.9409,-22.32423 77.9409,-38.54779 0,-3.16296 -8.4024,-13.82458 -18.6719,-23.69248 -10.2696,-9.8679 -17.4579,-19.15566 -15.9741,-20.63946 2.7026,-2.7026 26.8279,-9.60417 48.3472,-13.83077 17.2845,-3.39485 39.8548,23.78496 39.8548,47.99441 0,24.49622 10.759,44.25308 24.099,44.25308 5.7644,0 19.2692,-4.78222 30.0106,-10.62716 29.2515,-15.91717 42.7577,-18.02809 48.3608,-7.55846 2.5529,4.77005 4.6416,13.7849 4.6416,20.03302 0,8.71939 4.0621,13.43251 17.4742,20.27489 9.6109,4.90308 20.4025,14.78445 23.9814,21.95861 6.0182,12.06365 5.6273,14.96246 -5.2009,38.57288 l -11.7082,25.52896 -56.5908,-3.04303 c -46.4921,-2.5 -58.9561,-1.81991 -69.8451,3.81103 -19.5679,10.11894 -49.0206,56.68909 -52.5158,83.03702 l -2.8785,21.69894 -36.6581,-19.8207 c -45.3458,-24.51803 -137.354,-47.68958 -147.3896,-37.11893 -3.2126,3.38387 -18.8122,34.26939 -34.6658,68.6345 -15.8536,34.36511 -35.6469,75.73526 -43.9851,91.93373 -13.9657,27.13089 -16.0395,29.19106 -26.3178,26.14453 z"
       id="Nangka"
       inkscape:label="#Nangka">
      <title
         id="title59">Nangka</title>
    </path>
  </g>
</svg>
